<?xml version="1.0" encoding="utf-8" standalone="no"?>
<!DOCTYPE svg PUBLIC "-//W3C//DTD SVG 1.1//EN"
  "http://www.w3.org/Graphics/SVG/1.1/DTD/svg11.dtd">
<svg xmlns:xlink="http://www.w3.org/1999/xlink" width="756pt" height="331.2pt" viewBox="0 0 756 331.2" xmlns="http://www.w3.org/2000/svg" version="1.1">
 <metadata>
  <rdf:RDF xmlns:dc="http://purl.org/dc/elements/1.1/" xmlns:cc="http://creativecommons.org/ns#" xmlns:rdf="http://www.w3.org/1999/02/22-rdf-syntax-ns#">
   <cc:Work>
    <dc:type rdf:resource="http://purl.org/dc/dcmitype/StillImage"/>
    <dc:date>2026-09-10T16:23:52.414602</dc:date>
    <dc:format>image/svg+xml</dc:format>
    <dc:creator>
     <cc:Agent>
      <dc:title>Matplotlib v3.11.1, https://matplotlib.org/</dc:title>
     </cc:Agent>
    </dc:creator>
   </cc:Work>
  </rdf:RDF>
 </metadata>
 <defs>
  <style type="text/css">*{stroke-linejoin: round; stroke-linecap: butt}</style>
 </defs>
 <g id="figure_1">
  <g id="patch_1">
   <path d="M 0 331.2 
L 756 331.2 
L 756 0 
L 0 0 
z
" style="fill: #f5f8fc"/>
  </g>
  <g id="axes_1">
   <g id="patch_2">
    <path d="M 45.084927 293.198823 
L 752.99976 293.198823 
L 752.99976 19.94199 
L 45.084927 19.94199 
z
" style="fill: #f5f8fc"/>
   </g>
   <g id="matplotlib.axis_1">
    <g id="xtick_1">
     <g id="line2d_1">
      <path d="M 115.876411 293.198823 
L 115.876411 19.94199 
" clip-path="url(#pafe2e53382)" style="fill: none; stroke: #b0b0b0; stroke-opacity: 0.18; stroke-width: 0.8; stroke-linecap: square"/>
     </g>
     <g id="line2d_2">
      <defs>
       <path id="m2f220a453d" d="M 0 0
L 0 3.5 
" style="stroke: #5c6c80; stroke-width: 0.8"/>
      </defs>
      <g>
       <use xlink:href="#m2f220a453d" x="115.876411" y="293.198823" style="fill: #5c6c80; stroke: #5c6c80; stroke-width: 0.8"/>
      </g>
     </g>
     <g id="text_1">
      <!-- −2 -->
      <g style="fill: #5c6c80" transform="translate(107.031098 309.31601) scale(0.12 -0.12)">
       <defs>
        <path id="DejaVuSans-c9c" d="M 678 2272 
L 4684 2272 
L 4684 1741 
L 678 1741 
L 678 2272 
z
" transform="scale(0.015625)"/>
        <path id="DejaVuSans-15" d="M 1228 531 
L 3431 531 
L 3431 0 
L 469 0 
L 469 531 
Q 828 903 1448 1529 
Q 2069 2156 2228 2338 
Q 2531 2678 2651 2914 
Q 2772 3150 2772 3378 
Q 2772 3750 2511 3984 
Q 2250 4219 1831 4219 
Q 1534 4219 1204 4116 
Q 875 4013 500 3803 
L 500 4441 
Q 881 4594 1212 4672 
Q 1544 4750 1819 4750 
Q 2544 4750 2975 4387 
Q 3406 4025 3406 3419 
Q 3406 3131 3298 2873 
Q 3191 2616 2906 2266 
Q 2828 2175 2409 1742 
Q 1991 1309 1228 531 
z
" transform="scale(0.015625)"/>
       </defs>
       <use xlink:href="#DejaVuSans-c9c"/>
       <use xlink:href="#DejaVuSans-15" transform="translate(83.796875 0)"/>
      </g>
     </g>
    </g>
    <g id="xtick_2">
     <g id="line2d_3">
      <path d="M 257.459377 293.198823 
L 257.459377 19.94199 
" clip-path="url(#pafe2e53382)" style="fill: none; stroke: #b0b0b0; stroke-opacity: 0.18; stroke-width: 0.8; stroke-linecap: square"/>
     </g>
     <g id="line2d_4">
      <g>
       <use xlink:href="#m2f220a453d" x="257.459377" y="293.198823" style="fill: #5c6c80; stroke: #5c6c80; stroke-width: 0.8"/>
      </g>
     </g>
     <g id="text_2">
      <!-- −1 -->
      <g style="fill: #5c6c80" transform="translate(248.614065 309.31601) scale(0.12 -0.12)">
       <defs>
        <path id="DejaVuSans-14" d="M 794 531 
L 1825 531 
L 1825 4091 
L 703 3866 
L 703 4441 
L 1819 4666 
L 2450 4666 
L 2450 531 
L 3481 531 
L 3481 0 
L 794 0 
L 794 531 
z
" transform="scale(0.015625)"/>
       </defs>
       <use xlink:href="#DejaVuSans-c9c"/>
       <use xlink:href="#DejaVuSans-14" transform="translate(83.796875 0)"/>
      </g>
     </g>
    </g>
    <g id="xtick_3">
     <g id="line2d_5">
      <path d="M 399.042344 293.198823 
L 399.042344 19.94199 
" clip-path="url(#pafe2e53382)" style="fill: none; stroke: #b0b0b0; stroke-opacity: 0.18; stroke-width: 0.8; stroke-linecap: square"/>
     </g>
     <g id="line2d_6">
      <g>
       <use xlink:href="#m2f220a453d" x="399.042344" y="293.198823" style="fill: #5c6c80; stroke: #5c6c80; stroke-width: 0.8"/>
      </g>
     </g>
     <g id="text_3">
      <!-- 0 -->
      <g style="fill: #5c6c80" transform="translate(395.224844 309.31601) scale(0.12 -0.12)">
       <defs>
        <path id="DejaVuSans-13" d="M 2034 4250 
Q 1547 4250 1301 3770 
Q 1056 3291 1056 2328 
Q 1056 1369 1301 889 
Q 1547 409 2034 409 
Q 2525 409 2770 889 
Q 3016 1369 3016 2328 
Q 3016 3291 2770 3770 
Q 2525 4250 2034 4250 
z
M 2034 4750 
Q 2819 4750 3233 4129 
Q 3647 3509 3647 2328 
Q 3647 1150 3233 529 
Q 2819 -91 2034 -91 
Q 1250 -91 836 529 
Q 422 1150 422 2328 
Q 422 3509 836 4129 
Q 1250 4750 2034 4750 
z
" transform="scale(0.015625)"/>
       </defs>
       <use xlink:href="#DejaVuSans-13"/>
      </g>
     </g>
    </g>
    <g id="xtick_4">
     <g id="line2d_7">
      <path d="M 540.62531 293.198823 
L 540.62531 19.94199 
" clip-path="url(#pafe2e53382)" style="fill: none; stroke: #b0b0b0; stroke-opacity: 0.18; stroke-width: 0.8; stroke-linecap: square"/>
     </g>
     <g id="line2d_8">
      <g>
       <use xlink:href="#m2f220a453d" x="540.62531" y="293.198823" style="fill: #5c6c80; stroke: #5c6c80; stroke-width: 0.8"/>
      </g>
     </g>
     <g id="text_4">
      <!-- 1 -->
      <g style="fill: #5c6c80" transform="translate(536.80781 309.31601) scale(0.12 -0.12)">
       <use xlink:href="#DejaVuSans-14"/>
      </g>
     </g>
    </g>
    <g id="xtick_5">
     <g id="line2d_9">
      <path d="M 682.208277 293.198823 
L 682.208277 19.94199 
" clip-path="url(#pafe2e53382)" style="fill: none; stroke: #b0b0b0; stroke-opacity: 0.18; stroke-width: 0.8; stroke-linecap: square"/>
     </g>
     <g id="line2d_10">
      <g>
       <use xlink:href="#m2f220a453d" x="682.208277" y="293.198823" style="fill: #5c6c80; stroke: #5c6c80; stroke-width: 0.8"/>
      </g>
     </g>
     <g id="text_5">
      <!-- 2 -->
      <g style="fill: #5c6c80" transform="translate(678.390777 309.31601) scale(0.12 -0.12)">
       <use xlink:href="#DejaVuSans-15"/>
      </g>
     </g>
    </g>
    <g id="text_6">
     <!-- Screen-space position relative to the edge (px) -->
     <g style="fill: #37465b" transform="translate(257.893281 325.316947) scale(0.12 -0.12)">
      <defs>
       <path id="DejaVuSans-36" d="M 3425 4513 
L 3425 3897 
Q 3066 4069 2747 4153 
Q 2428 4238 2131 4238 
Q 1616 4238 1336 4038 
Q 1056 3838 1056 3469 
Q 1056 3159 1242 3001 
Q 1428 2844 1947 2747 
L 2328 2669 
Q 3034 2534 3370 2195 
Q 3706 1856 3706 1288 
Q 3706 609 3251 259 
Q 2797 -91 1919 -91 
Q 1588 -91 1214 -16 
Q 841 59 441 206 
L 441 856 
Q 825 641 1194 531 
Q 1563 422 1919 422 
Q 2459 422 2753 634 
Q 3047 847 3047 1241 
Q 3047 1584 2836 1778 
Q 2625 1972 2144 2069 
L 1759 2144 
Q 1053 2284 737 2584 
Q 422 2884 422 3419 
Q 422 4038 858 4394 
Q 1294 4750 2059 4750 
Q 2388 4750 2728 4690 
Q 3069 4631 3425 4513 
z
" transform="scale(0.015625)"/>
       <path id="DejaVuSans-46" d="M 3122 3366 
L 3122 2828 
Q 2878 2963 2633 3030 
Q 2388 3097 2138 3097 
Q 1578 3097 1268 2742 
Q 959 2388 959 1747 
Q 959 1106 1268 751 
Q 1578 397 2138 397 
Q 2388 397 2633 464 
Q 2878 531 3122 666 
L 3122 134 
Q 2881 22 2623 -34 
Q 2366 -91 2075 -91 
Q 1284 -91 818 406 
Q 353 903 353 1747 
Q 353 2603 823 3093 
Q 1294 3584 2113 3584 
Q 2378 3584 2631 3529 
Q 2884 3475 3122 3366 
z
" transform="scale(0.015625)"/>
       <path id="DejaVuSans-55" d="M 2631 2963 
Q 2534 3019 2420 3045 
Q 2306 3072 2169 3072 
Q 1681 3072 1420 2755 
Q 1159 2438 1159 1844 
L 1159 0 
L 581 0 
L 581 3500 
L 1159 3500 
L 1159 2956 
Q 1341 3275 1631 3429 
Q 1922 3584 2338 3584 
Q 2397 3584 2469 3576 
Q 2541 3569 2628 3553 
L 2631 2963 
z
" transform="scale(0.015625)"/>
       <path id="DejaVuSans-48" d="M 3597 1894 
L 3597 1613 
L 953 1613 
Q 991 1019 1311 708 
Q 1631 397 2203 397 
Q 2534 397 2845 478 
Q 3156 559 3463 722 
L 3463 178 
Q 3153 47 2828 -22 
Q 2503 -91 2169 -91 
Q 1331 -91 842 396 
Q 353 884 353 1716 
Q 353 2575 817 3079 
Q 1281 3584 2069 3584 
Q 2775 3584 3186 3129 
Q 3597 2675 3597 1894 
z
M 3022 2063 
Q 3016 2534 2758 2815 
Q 2500 3097 2075 3097 
Q 1594 3097 1305 2825 
Q 1016 2553 972 2059 
L 3022 2063 
z
" transform="scale(0.015625)"/>
       <path id="DejaVuSans-51" d="M 3513 2113 
L 3513 0 
L 2938 0 
L 2938 2094 
Q 2938 2591 2744 2837 
Q 2550 3084 2163 3084 
Q 1697 3084 1428 2787 
Q 1159 2491 1159 1978 
L 1159 0 
L 581 0 
L 581 3500 
L 1159 3500 
L 1159 2956 
Q 1366 3272 1645 3428 
Q 1925 3584 2291 3584 
Q 2894 3584 3203 3211 
Q 3513 2838 3513 2113 
z
" transform="scale(0.015625)"/>
       <path id="DejaVuSans-10" d="M 313 2009 
L 1997 2009 
L 1997 1497 
L 313 1497 
L 313 2009 
z
" transform="scale(0.015625)"/>
       <path id="DejaVuSans-56" d="M 2834 3397 
L 2834 2853 
Q 2591 2978 2328 3040 
Q 2066 3103 1784 3103 
Q 1356 3103 1142 2972 
Q 928 2841 928 2578 
Q 928 2378 1081 2264 
Q 1234 2150 1697 2047 
L 1894 2003 
Q 2506 1872 2764 1633 
Q 3022 1394 3022 966 
Q 3022 478 2636 193 
Q 2250 -91 1575 -91 
Q 1294 -91 989 -36 
Q 684 19 347 128 
L 347 722 
Q 666 556 975 473 
Q 1284 391 1588 391 
Q 1994 391 2212 530 
Q 2431 669 2431 922 
Q 2431 1156 2273 1281 
Q 2116 1406 1581 1522 
L 1381 1569 
Q 847 1681 609 1914 
Q 372 2147 372 2553 
Q 372 3047 722 3315 
Q 1072 3584 1716 3584 
Q 2034 3584 2315 3537 
Q 2597 3491 2834 3397 
z
" transform="scale(0.015625)"/>
       <path id="DejaVuSans-53" d="M 1159 525 
L 1159 -1331 
L 581 -1331 
L 581 3500 
L 1159 3500 
L 1159 2969 
Q 1341 3281 1617 3432 
Q 1894 3584 2278 3584 
Q 2916 3584 3314 3078 
Q 3713 2572 3713 1747 
Q 3713 922 3314 415 
Q 2916 -91 2278 -91 
Q 1894 -91 1617 61 
Q 1341 213 1159 525 
z
M 3116 1747 
Q 3116 2381 2855 2742 
Q 2594 3103 2138 3103 
Q 1681 3103 1420 2742 
Q 1159 2381 1159 1747 
Q 1159 1113 1420 752 
Q 1681 391 2138 391 
Q 2594 391 2855 752 
Q 3116 1113 3116 1747 
z
" transform="scale(0.015625)"/>
       <path id="DejaVuSans-44" d="M 2194 1759 
Q 1497 1759 1228 1600 
Q 959 1441 959 1056 
Q 959 750 1161 570 
Q 1363 391 1709 391 
Q 2188 391 2477 730 
Q 2766 1069 2766 1631 
L 2766 1759 
L 2194 1759 
z
M 3341 1997 
L 3341 0 
L 2766 0 
L 2766 531 
Q 2569 213 2275 61 
Q 1981 -91 1556 -91 
Q 1019 -91 701 211 
Q 384 513 384 1019 
Q 384 1609 779 1909 
Q 1175 2209 1959 2209 
L 2766 2209 
L 2766 2266 
Q 2766 2663 2505 2880 
Q 2244 3097 1772 3097 
Q 1472 3097 1187 3025 
Q 903 2953 641 2809 
L 641 3341 
Q 956 3463 1253 3523 
Q 1550 3584 1831 3584 
Q 2591 3584 2966 3190 
Q 3341 2797 3341 1997 
z
" transform="scale(0.015625)"/>
       <path id="DejaVuSans-3" transform="scale(0.015625)"/>
       <path id="DejaVuSans-52" d="M 1959 3097 
Q 1497 3097 1228 2736 
Q 959 2375 959 1747 
Q 959 1119 1226 758 
Q 1494 397 1959 397 
Q 2419 397 2687 759 
Q 2956 1122 2956 1747 
Q 2956 2369 2687 2733 
Q 2419 3097 1959 3097 
z
M 1959 3584 
Q 2709 3584 3137 3096 
Q 3566 2609 3566 1747 
Q 3566 888 3137 398 
Q 2709 -91 1959 -91 
Q 1206 -91 779 398 
Q 353 888 353 1747 
Q 353 2609 779 3096 
Q 1206 3584 1959 3584 
z
" transform="scale(0.015625)"/>
       <path id="DejaVuSans-4c" d="M 603 3500 
L 1178 3500 
L 1178 0 
L 603 0 
L 603 3500 
z
M 603 4863 
L 1178 4863 
L 1178 4134 
L 603 4134 
L 603 4863 
z
" transform="scale(0.015625)"/>
       <path id="DejaVuSans-57" d="M 1172 4494 
L 1172 3500 
L 2356 3500 
L 2356 3053 
L 1172 3053 
L 1172 1153 
Q 1172 725 1289 603 
Q 1406 481 1766 481 
L 2356 481 
L 2356 0 
L 1766 0 
Q 1100 0 847 248 
Q 594 497 594 1153 
L 594 3053 
L 172 3053 
L 172 3500 
L 594 3500 
L 594 4494 
L 1172 4494 
z
" transform="scale(0.015625)"/>
       <path id="DejaVuSans-4f" d="M 603 4863 
L 1178 4863 
L 1178 0 
L 603 0 
L 603 4863 
z
" transform="scale(0.015625)"/>
       <path id="DejaVuSans-59" d="M 191 3500 
L 800 3500 
L 1894 563 
L 2988 3500 
L 3597 3500 
L 2284 0 
L 1503 0 
L 191 3500 
z
" transform="scale(0.015625)"/>
       <path id="DejaVuSans-4b" d="M 3513 2113 
L 3513 0 
L 2938 0 
L 2938 2094 
Q 2938 2591 2744 2837 
Q 2550 3084 2163 3084 
Q 1697 3084 1428 2787 
Q 1159 2491 1159 1978 
L 1159 0 
L 581 0 
L 581 4863 
L 1159 4863 
L 1159 2956 
Q 1366 3272 1645 3428 
Q 1925 3584 2291 3584 
Q 2894 3584 3203 3211 
Q 3513 2838 3513 2113 
z
" transform="scale(0.015625)"/>
       <path id="DejaVuSans-47" d="M 2906 2969 
L 2906 4863 
L 3481 4863 
L 3481 0 
L 2906 0 
L 2906 525 
Q 2725 213 2448 61 
Q 2172 -91 1784 -91 
Q 1150 -91 751 415 
Q 353 922 353 1747 
Q 353 2572 751 3078 
Q 1150 3584 1784 3584 
Q 2172 3584 2448 3432 
Q 2725 3281 2906 2969 
z
M 947 1747 
Q 947 1113 1208 752 
Q 1469 391 1925 391 
Q 2381 391 2643 752 
Q 2906 1113 2906 1747 
Q 2906 2381 2643 2742 
Q 2381 3103 1925 3103 
Q 1469 3103 1208 2742 
Q 947 2381 947 1747 
z
" transform="scale(0.015625)"/>
       <path id="DejaVuSans-4a" d="M 2906 1791 
Q 2906 2416 2648 2759 
Q 2391 3103 1925 3103 
Q 1463 3103 1205 2759 
Q 947 2416 947 1791 
Q 947 1169 1205 825 
Q 1463 481 1925 481 
Q 2391 481 2648 825 
Q 2906 1169 2906 1791 
z
M 3481 434 
Q 3481 -459 3084 -895 
Q 2688 -1331 1869 -1331 
Q 1566 -1331 1297 -1286 
Q 1028 -1241 775 -1147 
L 775 -588 
Q 1028 -725 1275 -790 
Q 1522 -856 1778 -856 
Q 2344 -856 2625 -561 
Q 2906 -266 2906 331 
L 2906 616 
Q 2728 306 2450 153 
Q 2172 0 1784 0 
Q 1141 0 747 490 
Q 353 981 353 1791 
Q 353 2603 747 3093 
Q 1141 3584 1784 3584 
Q 2172 3584 2450 3431 
Q 2728 3278 2906 2969 
L 2906 3500 
L 3481 3500 
L 3481 434 
z
" transform="scale(0.015625)"/>
       <path id="DejaVuSans-b" d="M 1984 4856 
Q 1566 4138 1362 3434 
Q 1159 2731 1159 2009 
Q 1159 1288 1364 580 
Q 1569 -128 1984 -844 
L 1484 -844 
Q 1016 -109 783 600 
Q 550 1309 550 2009 
Q 550 2706 781 3412 
Q 1013 4119 1484 4856 
L 1984 4856 
z
" transform="scale(0.015625)"/>
       <path id="DejaVuSans-5b" d="M 3513 3500 
L 2247 1797 
L 3578 0 
L 2900 0 
L 1881 1375 
L 863 0 
L 184 0 
L 1544 1831 
L 300 3500 
L 978 3500 
L 1906 2253 
L 2834 3500 
L 3513 3500 
z
" transform="scale(0.015625)"/>
       <path id="DejaVuSans-c" d="M 513 4856 
L 1013 4856 
Q 1481 4119 1714 3412 
Q 1947 2706 1947 2009 
Q 1947 1309 1714 600 
Q 1481 -109 1013 -844 
L 513 -844 
Q 928 -128 1133 580 
Q 1338 1288 1338 2009 
Q 1338 2731 1133 3434 
Q 928 4138 513 4856 
z
" transform="scale(0.015625)"/>
      </defs>
      <use xlink:href="#DejaVuSans-36"/>
      <use xlink:href="#DejaVuSans-46" transform="translate(63.484375 0)"/>
      <use xlink:href="#DejaVuSans-55" transform="translate(118.46875 0)"/>
      <use xlink:href="#DejaVuSans-48" transform="translate(157.375 0)"/>
      <use xlink:href="#DejaVuSans-48" transform="translate(218.90625 0)"/>
      <use xlink:href="#DejaVuSans-51" transform="translate(280.4375 0)"/>
      <use xlink:href="#DejaVuSans-10" transform="translate(343.8125 0)"/>
      <use xlink:href="#DejaVuSans-56" transform="translate(379.890625 0)"/>
      <use xlink:href="#DejaVuSans-53" transform="translate(431.984375 0)"/>
      <use xlink:href="#DejaVuSans-44" transform="translate(495.46875 0)"/>
      <use xlink:href="#DejaVuSans-46" transform="translate(556.75 0)"/>
      <use xlink:href="#DejaVuSans-48" transform="translate(611.734375 0)"/>
      <use xlink:href="#DejaVuSans-3" transform="translate(673.265625 0)"/>
      <use xlink:href="#DejaVuSans-53" transform="translate(705.046875 0)"/>
      <use xlink:href="#DejaVuSans-52" transform="translate(768.53125 0)"/>
      <use xlink:href="#DejaVuSans-56" transform="translate(829.71875 0)"/>
      <use xlink:href="#DejaVuSans-4c" transform="translate(881.8125 0)"/>
      <use xlink:href="#DejaVuSans-57" transform="translate(909.59375 0)"/>
      <use xlink:href="#DejaVuSans-4c" transform="translate(948.796875 0)"/>
      <use xlink:href="#DejaVuSans-52" transform="translate(976.578125 0)"/>
      <use xlink:href="#DejaVuSans-51" transform="translate(1037.765625 0)"/>
      <use xlink:href="#DejaVuSans-3" transform="translate(1101.140625 0)"/>
      <use xlink:href="#DejaVuSans-55" transform="translate(1132.921875 0)"/>
      <use xlink:href="#DejaVuSans-48" transform="translate(1171.828125 0)"/>
      <use xlink:href="#DejaVuSans-4f" transform="translate(1233.359375 0)"/>
      <use xlink:href="#DejaVuSans-44" transform="translate(1261.140625 0)"/>
      <use xlink:href="#DejaVuSans-57" transform="translate(1322.421875 0)"/>
      <use xlink:href="#DejaVuSans-4c" transform="translate(1361.625 0)"/>
      <use xlink:href="#DejaVuSans-59" transform="translate(1389.40625 0)"/>
      <use xlink:href="#DejaVuSans-48" transform="translate(1448.59375 0)"/>
      <use xlink:href="#DejaVuSans-3" transform="translate(1510.125 0)"/>
      <use xlink:href="#DejaVuSans-57" transform="translate(1541.90625 0)"/>
      <use xlink:href="#DejaVuSans-52" transform="translate(1581.109375 0)"/>
      <use xlink:href="#DejaVuSans-3" transform="translate(1642.296875 0)"/>
      <use xlink:href="#DejaVuSans-57" transform="translate(1674.078125 0)"/>
      <use xlink:href="#DejaVuSans-4b" transform="translate(1713.28125 0)"/>
      <use xlink:href="#DejaVuSans-48" transform="translate(1776.65625 0)"/>
      <use xlink:href="#DejaVuSans-3" transform="translate(1838.1875 0)"/>
      <use xlink:href="#DejaVuSans-48" transform="translate(1869.96875 0)"/>
      <use xlink:href="#DejaVuSans-47" transform="translate(1931.5 0)"/>
      <use xlink:href="#DejaVuSans-4a" transform="translate(1994.984375 0)"/>
      <use xlink:href="#DejaVuSans-48" transform="translate(2058.46875 0)"/>
      <use xlink:href="#DejaVuSans-3" transform="translate(2120 0)"/>
      <use xlink:href="#DejaVuSans-b" transform="translate(2151.78125 0)"/>
      <use xlink:href="#DejaVuSans-53" transform="translate(2190.796875 0)"/>
      <use xlink:href="#DejaVuSans-5b" transform="translate(2254.28125 0)"/>
      <use xlink:href="#DejaVuSans-c" transform="translate(2313.46875 0)"/>
     </g>
    </g>
   </g>
   <g id="matplotlib.axis_2">
    <g id="ytick_1">
     <g id="line2d_11">
      <path d="M 45.084927 285.465139 
L 752.99976 285.465139 
" clip-path="url(#pafe2e53382)" style="fill: none; stroke: #b0b0b0; stroke-opacity: 0.18; stroke-width: 0.8; stroke-linecap: square"/>
     </g>
     <g id="line2d_12">
      <defs>
       <path id="mdd8884a1a9" d="M 0 0
L -3.5 0 
" style="stroke: #5c6c80; stroke-width: 0.8"/>
      </defs>
      <g>
       <use xlink:href="#mdd8884a1a9" x="45.084927" y="285.465139" style="fill: #5c6c80; stroke: #5c6c80; stroke-width: 0.8"/>
      </g>
     </g>
     <g id="text_7">
      <!-- 0.0 -->
      <g style="fill: #5c6c80" transform="translate(19.001178 290.023732) scale(0.12 -0.12)">
       <defs>
        <path id="DejaVuSans-11" d="M 684 794 
L 1344 794 
L 1344 0 
L 684 0 
L 684 794 
z
" transform="scale(0.015625)"/>
       </defs>
       <use xlink:href="#DejaVuSans-13"/>
       <use xlink:href="#DejaVuSans-11" transform="translate(63.625 0)"/>
       <use xlink:href="#DejaVuSans-13" transform="translate(95.40625 0)"/>
      </g>
     </g>
    </g>
    <g id="ytick_2">
     <g id="line2d_13">
      <path d="M 45.084927 233.907246 
L 752.99976 233.907246 
" clip-path="url(#pafe2e53382)" style="fill: none; stroke: #b0b0b0; stroke-opacity: 0.18; stroke-width: 0.8; stroke-linecap: square"/>
     </g>
     <g id="line2d_14">
      <g>
       <use xlink:href="#mdd8884a1a9" x="45.084927" y="233.907246" style="fill: #5c6c80; stroke: #5c6c80; stroke-width: 0.8"/>
      </g>
     </g>
     <g id="text_8">
      <!-- 0.2 -->
      <g style="fill: #5c6c80" transform="translate(19.001178 238.465839) scale(0.12 -0.12)">
       <use xlink:href="#DejaVuSans-13"/>
       <use xlink:href="#DejaVuSans-11" transform="translate(63.625 0)"/>
       <use xlink:href="#DejaVuSans-15" transform="translate(95.40625 0)"/>
      </g>
     </g>
    </g>
    <g id="ytick_3">
     <g id="line2d_15">
      <path d="M 45.084927 182.349353 
L 752.99976 182.349353 
" clip-path="url(#pafe2e53382)" style="fill: none; stroke: #b0b0b0; stroke-opacity: 0.18; stroke-width: 0.8; stroke-linecap: square"/>
     </g>
     <g id="line2d_16">
      <g>
       <use xlink:href="#mdd8884a1a9" x="45.084927" y="182.349353" style="fill: #5c6c80; stroke: #5c6c80; stroke-width: 0.8"/>
      </g>
     </g>
     <g id="text_9">
      <!-- 0.4 -->
      <g style="fill: #5c6c80" transform="translate(19.001178 186.907946) scale(0.12 -0.12)">
       <defs>
        <path id="DejaVuSans-17" d="M 2419 4116 
L 825 1625 
L 2419 1625 
L 2419 4116 
z
M 2253 4666 
L 3047 4666 
L 3047 1625 
L 3713 1625 
L 3713 1100 
L 3047 1100 
L 3047 0 
L 2419 0 
L 2419 1100 
L 313 1100 
L 313 1709 
L 2253 4666 
z
" transform="scale(0.015625)"/>
       </defs>
       <use xlink:href="#DejaVuSans-13"/>
       <use xlink:href="#DejaVuSans-11" transform="translate(63.625 0)"/>
       <use xlink:href="#DejaVuSans-17" transform="translate(95.40625 0)"/>
      </g>
     </g>
    </g>
    <g id="ytick_4">
     <g id="line2d_17">
      <path d="M 45.084927 130.79146 
L 752.99976 130.79146 
" clip-path="url(#pafe2e53382)" style="fill: none; stroke: #b0b0b0; stroke-opacity: 0.18; stroke-width: 0.8; stroke-linecap: square"/>
     </g>
     <g id="line2d_18">
      <g>
       <use xlink:href="#mdd8884a1a9" x="45.084927" y="130.79146" style="fill: #5c6c80; stroke: #5c6c80; stroke-width: 0.8"/>
      </g>
     </g>
     <g id="text_10">
      <!-- 0.6 -->
      <g style="fill: #5c6c80" transform="translate(19.001178 135.350054) scale(0.12 -0.12)">
       <defs>
        <path id="DejaVuSans-19" d="M 2113 2584 
Q 1688 2584 1439 2293 
Q 1191 2003 1191 1497 
Q 1191 994 1439 701 
Q 1688 409 2113 409 
Q 2538 409 2786 701 
Q 3034 994 3034 1497 
Q 3034 2003 2786 2293 
Q 2538 2584 2113 2584 
z
M 3366 4563 
L 3366 3988 
Q 3128 4100 2886 4159 
Q 2644 4219 2406 4219 
Q 1781 4219 1451 3797 
Q 1122 3375 1075 2522 
Q 1259 2794 1537 2939 
Q 1816 3084 2150 3084 
Q 2853 3084 3261 2657 
Q 3669 2231 3669 1497 
Q 3669 778 3244 343 
Q 2819 -91 2113 -91 
Q 1303 -91 875 529 
Q 447 1150 447 2328 
Q 447 3434 972 4092 
Q 1497 4750 2381 4750 
Q 2619 4750 2861 4703 
Q 3103 4656 3366 4563 
z
" transform="scale(0.015625)"/>
       </defs>
       <use xlink:href="#DejaVuSans-13"/>
       <use xlink:href="#DejaVuSans-11" transform="translate(63.625 0)"/>
       <use xlink:href="#DejaVuSans-19" transform="translate(95.40625 0)"/>
      </g>
     </g>
    </g>
    <g id="ytick_5">
     <g id="line2d_19">
      <path d="M 45.084927 79.233567 
L 752.99976 79.233567 
" clip-path="url(#pafe2e53382)" style="fill: none; stroke: #b0b0b0; stroke-opacity: 0.18; stroke-width: 0.8; stroke-linecap: square"/>
     </g>
     <g id="line2d_20">
      <g>
       <use xlink:href="#mdd8884a1a9" x="45.084927" y="79.233567" style="fill: #5c6c80; stroke: #5c6c80; stroke-width: 0.8"/>
      </g>
     </g>
     <g id="text_11">
      <!-- 0.8 -->
      <g style="fill: #5c6c80" transform="translate(19.001178 83.792161) scale(0.12 -0.12)">
       <defs>
        <path id="DejaVuSans-1b" d="M 2034 2216 
Q 1584 2216 1326 1975 
Q 1069 1734 1069 1313 
Q 1069 891 1326 650 
Q 1584 409 2034 409 
Q 2484 409 2743 651 
Q 3003 894 3003 1313 
Q 3003 1734 2745 1975 
Q 2488 2216 2034 2216 
z
M 1403 2484 
Q 997 2584 770 2862 
Q 544 3141 544 3541 
Q 544 4100 942 4425 
Q 1341 4750 2034 4750 
Q 2731 4750 3128 4425 
Q 3525 4100 3525 3541 
Q 3525 3141 3298 2862 
Q 3072 2584 2669 2484 
Q 3125 2378 3379 2068 
Q 3634 1759 3634 1313 
Q 3634 634 3220 271 
Q 2806 -91 2034 -91 
Q 1263 -91 848 271 
Q 434 634 434 1313 
Q 434 1759 690 2068 
Q 947 2378 1403 2484 
z
M 1172 3481 
Q 1172 3119 1398 2916 
Q 1625 2713 2034 2713 
Q 2441 2713 2670 2916 
Q 2900 3119 2900 3481 
Q 2900 3844 2670 4047 
Q 2441 4250 2034 4250 
Q 1625 4250 1398 4047 
Q 1172 3844 1172 3481 
z
" transform="scale(0.015625)"/>
       </defs>
       <use xlink:href="#DejaVuSans-13"/>
       <use xlink:href="#DejaVuSans-11" transform="translate(63.625 0)"/>
       <use xlink:href="#DejaVuSans-1b" transform="translate(95.40625 0)"/>
      </g>
     </g>
    </g>
    <g id="ytick_6">
     <g id="line2d_21">
      <path d="M 45.084927 27.675674 
L 752.99976 27.675674 
" clip-path="url(#pafe2e53382)" style="fill: none; stroke: #b0b0b0; stroke-opacity: 0.18; stroke-width: 0.8; stroke-linecap: square"/>
     </g>
     <g id="line2d_22">
      <g>
       <use xlink:href="#mdd8884a1a9" x="45.084927" y="27.675674" style="fill: #5c6c80; stroke: #5c6c80; stroke-width: 0.8"/>
      </g>
     </g>
     <g id="text_12">
      <!-- 1.0 -->
      <g style="fill: #5c6c80" transform="translate(19.001178 32.234268) scale(0.12 -0.12)">
       <use xlink:href="#DejaVuSans-14"/>
       <use xlink:href="#DejaVuSans-11" transform="translate(63.625 0)"/>
       <use xlink:href="#DejaVuSans-13" transform="translate(95.40625 0)"/>
      </g>
     </g>
    </g>
    <g id="text_13">
     <!-- Lit weight -->
     <g style="fill: #37465b" transform="translate(12.118365 186.068844) rotate(-90) scale(0.12 -0.12)">
      <defs>
       <path id="DejaVuSans-2f" d="M 628 4666 
L 1259 4666 
L 1259 531 
L 3531 531 
L 3531 0 
L 628 0 
L 628 4666 
z
" transform="scale(0.015625)"/>
       <path id="DejaVuSans-5a" d="M 269 3500 
L 844 3500 
L 1563 769 
L 2278 3500 
L 2956 3500 
L 3675 769 
L 4391 3500 
L 4966 3500 
L 4050 0 
L 3372 0 
L 2619 2869 
L 1863 0 
L 1184 0 
L 269 3500 
z
" transform="scale(0.015625)"/>
      </defs>
      <use xlink:href="#DejaVuSans-2f"/>
      <use xlink:href="#DejaVuSans-4c" transform="translate(55.71875 0)"/>
      <use xlink:href="#DejaVuSans-57" transform="translate(83.5 0)"/>
      <use xlink:href="#DejaVuSans-3" transform="translate(122.703125 0)"/>
      <use xlink:href="#DejaVuSans-5a" transform="translate(154.484375 0)"/>
      <use xlink:href="#DejaVuSans-48" transform="translate(236.265625 0)"/>
      <use xlink:href="#DejaVuSans-4c" transform="translate(297.796875 0)"/>
      <use xlink:href="#DejaVuSans-4a" transform="translate(325.578125 0)"/>
      <use xlink:href="#DejaVuSans-4b" transform="translate(389.0625 0)"/>
      <use xlink:href="#DejaVuSans-57" transform="translate(452.4375 0)"/>
     </g>
    </g>
   </g>
   <g id="line2d_23">
    <path d="M 45.084927 285.465139 
L 399.042344 285.465139 
L 399.042344 27.675674 
L 752.99976 27.675674 
L 752.99976 27.675674 
" clip-path="url(#pafe2e53382)" style="fill: none; stroke: #afbbc9; stroke-width: 2; stroke-linecap: square"/>
   </g>
   <g id="line2d_24">
    <path d="M 45.084927 285.465139 
L 329.430719 285.411731 
L 331.200506 285.134137 
L 332.970293 284.624936 
L 334.74008 283.890169 
L 336.509867 282.935878 
L 338.279654 281.768105 
L 340.63937 279.889434 
L 342.999086 277.656303 
L 345.358802 275.083033 
L 347.718518 272.183946 
L 350.078235 268.973363 
L 353.02788 264.543912 
L 355.977525 259.678099 
L 358.92717 254.403895 
L 362.466744 247.57516 
L 366.006318 240.246957 
L 370.135821 231.130601 
L 374.265325 221.47696 
L 378.984757 209.884788 
L 384.294118 196.267261 
L 391.373266 177.433861 
L 416.150286 110.755676 
L 421.459647 97.391911 
L 426.179079 86.086172 
L 430.308582 76.730152 
L 434.438085 67.955278 
L 437.97766 60.954683 
L 441.517234 54.485778 
L 444.466879 49.536049 
L 447.416524 45.017088 
L 450.366169 40.956866 
L 452.725885 38.057779 
L 455.085601 35.484509 
L 457.445317 33.251378 
L 459.805034 31.372708 
L 461.574821 30.204935 
L 463.344608 29.250644 
L 465.114395 28.515877 
L 466.884182 28.006675 
L 468.653969 27.729082 
L 471.013685 27.675674 
L 752.99976 27.675674 
L 752.99976 27.675674 
" clip-path="url(#pafe2e53382)" style="fill: none; stroke: #2375b9; stroke-width: 2.8; stroke-linecap: square"/>
   </g>
   <g id="line2d_25">
    <path d="M 45.084927 285.465139 
L 295.214835 285.370368 
L 297.574551 285.088886 
L 299.934267 284.624936 
L 302.883912 283.794867 
L 305.833557 282.694609 
L 308.783203 281.332451 
L 311.732848 279.716681 
L 314.682493 277.855587 
L 317.632138 275.757456 
L 321.171712 272.93848 
L 324.711286 269.804429 
L 328.25086 266.369623 
L 331.790435 262.648384 
L 335.919938 257.964026 
L 340.049441 252.932037 
L 344.178944 247.57516 
L 348.898376 241.084364 
L 353.617809 234.232875 
L 358.92717 226.136078 
L 364.82646 216.713413 
L 371.315679 205.906865 
L 378.984757 192.656246 
L 387.833692 176.902942 
L 403.761776 147.983082 
L 416.150286 125.69036 
L 424.409292 111.261731 
L 431.48844 99.332205 
L 437.387731 89.78721 
L 443.287021 80.67319 
L 448.596382 72.893856 
L 453.315814 66.356117 
L 458.035246 60.208775 
L 462.16475 55.176786 
L 466.294253 50.492428 
L 470.423756 46.178444 
L 473.96333 42.792769 
L 477.502904 39.710236 
L 481.042479 36.945166 
L 483.992124 34.893779 
L 486.941769 33.081086 
L 489.891414 31.515376 
L 492.841059 30.204935 
L 495.790704 29.158052 
L 498.740349 28.383015 
L 501.689994 27.888112 
L 504.049711 27.699455 
L 508.179214 27.675674 
L 752.99976 27.675674 
L 752.99976 27.675674 
" clip-path="url(#pafe2e53382)" style="fill: none; stroke: #16a39a; stroke-width: 2.8; stroke-linecap: square"/>
   </g>
   <g id="line2d_26">
    <path d="M 45.084927 285.465139 
L 191.387326 285.370368 
L 196.696687 285.040784 
L 202.006049 284.480935 
L 207.31541 283.696863 
L 212.624771 282.694609 
L 217.934132 281.480216 
L 223.833423 279.889434 
L 229.732713 278.052499 
L 235.632003 275.977699 
L 241.531294 273.673322 
L 248.020513 270.883237 
L 254.509732 267.836423 
L 260.998951 264.543912 
L 267.488171 261.016735 
L 274.567319 256.914233 
L 281.646467 252.559908 
L 289.315545 247.57516 
L 296.984622 242.329886 
L 305.243628 236.41066 
L 314.092564 229.782614 
L 323.531428 222.417403 
L 333.560222 214.295069 
L 344.178944 205.406032 
L 355.977525 195.238526 
L 369.545892 183.250809 
L 387.243763 167.300583 
L 432.668298 126.21372 
L 446.236666 114.312737 
L 458.035246 104.245599 
L 468.653969 95.466733 
L 478.682762 87.465711 
L 488.121627 80.229991 
L 496.970562 73.736832 
L 505.229569 67.955278 
L 512.898646 62.848024 
L 520.567723 58.0111 
L 527.646872 53.801931 
L 534.72602 49.852939 
L 541.215239 46.473818 
L 547.704459 43.336384 
L 554.193678 40.451667 
L 560.092968 38.057779 
L 565.992258 35.890154 
L 571.891549 33.957078 
L 577.790839 32.26684 
L 583.690129 30.827728 
L 588.99949 29.75409 
L 594.308852 28.89662 
L 599.618213 28.261358 
L 604.927574 27.854348 
L 610.236935 27.68163 
L 625.57509 27.675674 
L 752.99976 27.675674 
L 752.99976 27.675674 
" clip-path="url(#pafe2e53382)" style="fill: none; stroke: #dd816c; stroke-width: 2.8; stroke-linecap: square"/>
   </g>
   <g id="patch_3">
    <path d="M 45.084927 293.198822 
L 45.084927 19.94199 
" style="fill: none; stroke: #95a6b9; stroke-width: 0.8; stroke-linejoin: miter; stroke-linecap: square"/>
   </g>
   <g id="patch_4">
    <path d="M 45.084927 293.198823 
L 752.99976 293.198823 
" style="fill: none; stroke: #95a6b9; stroke-width: 0.8; stroke-linejoin: miter; stroke-linecap: square"/>
   </g>
   <g id="text_14">
    <!-- The transition belongs to the edge, not the whole face -->
    <g style="fill: #24364b" transform="translate(202.900844 13.94199) scale(0.144 -0.144)">
     <defs>
      <path id="DejaVuSans-37" d="M -19 4666 
L 3928 4666 
L 3928 4134 
L 2272 4134 
L 2272 0 
L 1638 0 
L 1638 4134 
L -19 4134 
L -19 4666 
z
" transform="scale(0.015625)"/>
      <path id="DejaVuSans-45" d="M 3116 1747 
Q 3116 2381 2855 2742 
Q 2594 3103 2138 3103 
Q 1681 3103 1420 2742 
Q 1159 2381 1159 1747 
Q 1159 1113 1420 752 
Q 1681 391 2138 391 
Q 2594 391 2855 752 
Q 3116 1113 3116 1747 
z
M 1159 2969 
Q 1341 3281 1617 3432 
Q 1894 3584 2278 3584 
Q 2916 3584 3314 3078 
Q 3713 2572 3713 1747 
Q 3713 922 3314 415 
Q 2916 -91 2278 -91 
Q 1894 -91 1617 61 
Q 1341 213 1159 525 
L 1159 0 
L 581 0 
L 581 4863 
L 1159 4863 
L 1159 2969 
z
" transform="scale(0.015625)"/>
      <path id="DejaVuSans-f" d="M 750 794 
L 1409 794 
L 1409 256 
L 897 -744 
L 494 -744 
L 750 256 
L 750 794 
z
" transform="scale(0.015625)"/>
      <path id="DejaVuSans-49" d="M 2375 4863 
L 2375 4384 
L 1825 4384 
Q 1516 4384 1395 4259 
Q 1275 4134 1275 3809 
L 1275 3500 
L 2222 3500 
L 2222 3053 
L 1275 3053 
L 1275 0 
L 697 0 
L 697 3053 
L 147 3053 
L 147 3500 
L 697 3500 
L 697 3744 
Q 697 4328 969 4595 
Q 1241 4863 1831 4863 
L 2375 4863 
z
" transform="scale(0.015625)"/>
     </defs>
     <use xlink:href="#DejaVuSans-37"/>
     <use xlink:href="#DejaVuSans-4b" transform="translate(61.078125 0)"/>
     <use xlink:href="#DejaVuSans-48" transform="translate(124.453125 0)"/>
     <use xlink:href="#DejaVuSans-3" transform="translate(185.984375 0)"/>
     <use xlink:href="#DejaVuSans-57" transform="translate(217.765625 0)"/>
     <use xlink:href="#DejaVuSans-55" transform="translate(256.96875 0)"/>
     <use xlink:href="#DejaVuSans-44" transform="translate(298.078125 0)"/>
     <use xlink:href="#DejaVuSans-51" transform="translate(359.359375 0)"/>
     <use xlink:href="#DejaVuSans-56" transform="translate(422.734375 0)"/>
     <use xlink:href="#DejaVuSans-4c" transform="translate(474.828125 0)"/>
     <use xlink:href="#DejaVuSans-57" transform="translate(502.609375 0)"/>
     <use xlink:href="#DejaVuSans-4c" transform="translate(541.8125 0)"/>
     <use xlink:href="#DejaVuSans-52" transform="translate(569.59375 0)"/>
     <use xlink:href="#DejaVuSans-51" transform="translate(630.78125 0)"/>
     <use xlink:href="#DejaVuSans-3" transform="translate(694.15625 0)"/>
     <use xlink:href="#DejaVuSans-45" transform="translate(725.9375 0)"/>
     <use xlink:href="#DejaVuSans-48" transform="translate(789.421875 0)"/>
     <use xlink:href="#DejaVuSans-4f" transform="translate(850.953125 0)"/>
     <use xlink:href="#DejaVuSans-52" transform="translate(878.734375 0)"/>
     <use xlink:href="#DejaVuSans-51" transform="translate(939.921875 0)"/>
     <use xlink:href="#DejaVuSans-4a" transform="translate(1003.296875 0)"/>
     <use xlink:href="#DejaVuSans-56" transform="translate(1066.78125 0)"/>
     <use xlink:href="#DejaVuSans-3" transform="translate(1118.875 0)"/>
     <use xlink:href="#DejaVuSans-57" transform="translate(1150.65625 0)"/>
     <use xlink:href="#DejaVuSans-52" transform="translate(1189.859375 0)"/>
     <use xlink:href="#DejaVuSans-3" transform="translate(1251.046875 0)"/>
     <use xlink:href="#DejaVuSans-57" transform="translate(1282.828125 0)"/>
     <use xlink:href="#DejaVuSans-4b" transform="translate(1322.03125 0)"/>
     <use xlink:href="#DejaVuSans-48" transform="translate(1385.40625 0)"/>
     <use xlink:href="#DejaVuSans-3" transform="translate(1446.9375 0)"/>
     <use xlink:href="#DejaVuSans-48" transform="translate(1478.71875 0)"/>
     <use xlink:href="#DejaVuSans-47" transform="translate(1540.25 0)"/>
     <use xlink:href="#DejaVuSans-4a" transform="translate(1603.734375 0)"/>
     <use xlink:href="#DejaVuSans-48" transform="translate(1667.21875 0)"/>
     <use xlink:href="#DejaVuSans-f" transform="translate(1728.75 0)"/>
     <use xlink:href="#DejaVuSans-3" transform="translate(1760.53125 0)"/>
     <use xlink:href="#DejaVuSans-51" transform="translate(1792.3125 0)"/>
     <use xlink:href="#DejaVuSans-52" transform="translate(1855.6875 0)"/>
     <use xlink:href="#DejaVuSans-57" transform="translate(1916.875 0)"/>
     <use xlink:href="#DejaVuSans-3" transform="translate(1956.078125 0)"/>
     <use xlink:href="#DejaVuSans-57" transform="translate(1987.859375 0)"/>
     <use xlink:href="#DejaVuSans-4b" transform="translate(2027.0625 0)"/>
     <use xlink:href="#DejaVuSans-48" transform="translate(2090.4375 0)"/>
     <use xlink:href="#DejaVuSans-3" transform="translate(2151.96875 0)"/>
     <use xlink:href="#DejaVuSans-5a" transform="translate(2183.75 0)"/>
     <use xlink:href="#DejaVuSans-4b" transform="translate(2265.53125 0)"/>
     <use xlink:href="#DejaVuSans-52" transform="translate(2328.90625 0)"/>
     <use xlink:href="#DejaVuSans-4f" transform="translate(2390.09375 0)"/>
     <use xlink:href="#DejaVuSans-48" transform="translate(2417.875 0)"/>
     <use xlink:href="#DejaVuSans-3" transform="translate(2479.40625 0)"/>
     <use xlink:href="#DejaVuSans-49" transform="translate(2511.1875 0)"/>
     <use xlink:href="#DejaVuSans-44" transform="translate(2546.390625 0)"/>
     <use xlink:href="#DejaVuSans-46" transform="translate(2607.671875 0)"/>
     <use xlink:href="#DejaVuSans-48" transform="translate(2662.65625 0)"/>
    </g>
   </g>
   <g id="legend_1">
    <g id="line2d_27">
     <path d="M 54.084927 33.040427 
L 64.084927 33.040427 
L 64.084927 33.040427 
L 74.084927 33.040427 
L 74.084927 33.040427 
" style="fill: none; stroke: #afbbc9; stroke-width: 2; stroke-linecap: square"/>
    </g>
    <g id="text_15">
     <!-- Hard threshold -->
     <g style="fill: #24364b" transform="translate(82.084927 36.540427) scale(0.1 -0.1)">
      <defs>
       <path id="DejaVuSans-2b" d="M 628 4666 
L 1259 4666 
L 1259 2753 
L 3553 2753 
L 3553 4666 
L 4184 4666 
L 4184 0 
L 3553 0 
L 3553 2222 
L 1259 2222 
L 1259 0 
L 628 0 
L 628 4666 
z
" transform="scale(0.015625)"/>
      </defs>
      <use xlink:href="#DejaVuSans-2b"/>
      <use xlink:href="#DejaVuSans-44" transform="translate(75.203125 0)"/>
      <use xlink:href="#DejaVuSans-55" transform="translate(136.484375 0)"/>
      <use xlink:href="#DejaVuSans-47" transform="translate(175.84375 0)"/>
      <use xlink:href="#DejaVuSans-3" transform="translate(239.328125 0)"/>
      <use xlink:href="#DejaVuSans-57" transform="translate(271.109375 0)"/>
      <use xlink:href="#DejaVuSans-4b" transform="translate(310.3125 0)"/>
      <use xlink:href="#DejaVuSans-55" transform="translate(373.6875 0)"/>
      <use xlink:href="#DejaVuSans-48" transform="translate(412.59375 0)"/>
      <use xlink:href="#DejaVuSans-56" transform="translate(474.125 0)"/>
      <use xlink:href="#DejaVuSans-4b" transform="translate(526.21875 0)"/>
      <use xlink:href="#DejaVuSans-52" transform="translate(589.59375 0)"/>
      <use xlink:href="#DejaVuSans-4f" transform="translate(650.78125 0)"/>
      <use xlink:href="#DejaVuSans-47" transform="translate(678.5625 0)"/>
     </g>
    </g>
    <g id="line2d_28">
     <path d="M 54.084927 48.041209 
L 64.084927 48.041209 
L 74.084927 48.041209 
" style="fill: none; stroke: #2375b9; stroke-width: 2.8; stroke-linecap: square"/>
    </g>
    <g id="text_16">
     <!-- Full transition: 1 px -->
     <g style="fill: #24364b" transform="translate(82.084927 51.541209) scale(0.1 -0.1)">
      <defs>
       <path id="DejaVuSans-29" d="M 628 4666 
L 3309 4666 
L 3309 4134 
L 1259 4134 
L 1259 2759 
L 3109 2759 
L 3109 2228 
L 1259 2228 
L 1259 0 
L 628 0 
L 628 4666 
z
" transform="scale(0.015625)"/>
       <path id="DejaVuSans-58" d="M 544 1381 
L 544 3500 
L 1119 3500 
L 1119 1403 
Q 1119 906 1312 657 
Q 1506 409 1894 409 
Q 2359 409 2629 706 
Q 2900 1003 2900 1516 
L 2900 3500 
L 3475 3500 
L 3475 0 
L 2900 0 
L 2900 538 
Q 2691 219 2414 64 
Q 2138 -91 1772 -91 
Q 1169 -91 856 284 
Q 544 659 544 1381 
z
M 1991 3584 
L 1991 3584 
z
" transform="scale(0.015625)"/>
       <path id="DejaVuSans-1d" d="M 750 794 
L 1409 794 
L 1409 0 
L 750 0 
L 750 794 
z
M 750 3309 
L 1409 3309 
L 1409 2516 
L 750 2516 
L 750 3309 
z
" transform="scale(0.015625)"/>
      </defs>
      <use xlink:href="#DejaVuSans-29"/>
      <use xlink:href="#DejaVuSans-58" transform="translate(52.046875 0)"/>
      <use xlink:href="#DejaVuSans-4f" transform="translate(115.421875 0)"/>
      <use xlink:href="#DejaVuSans-4f" transform="translate(143.203125 0)"/>
      <use xlink:href="#DejaVuSans-3" transform="translate(170.984375 0)"/>
      <use xlink:href="#DejaVuSans-57" transform="translate(202.765625 0)"/>
      <use xlink:href="#DejaVuSans-55" transform="translate(241.96875 0)"/>
      <use xlink:href="#DejaVuSans-44" transform="translate(283.078125 0)"/>
      <use xlink:href="#DejaVuSans-51" transform="translate(344.359375 0)"/>
      <use xlink:href="#DejaVuSans-56" transform="translate(407.734375 0)"/>
      <use xlink:href="#DejaVuSans-4c" transform="translate(459.828125 0)"/>
      <use xlink:href="#DejaVuSans-57" transform="translate(487.609375 0)"/>
      <use xlink:href="#DejaVuSans-4c" transform="translate(526.8125 0)"/>
      <use xlink:href="#DejaVuSans-52" transform="translate(554.59375 0)"/>
      <use xlink:href="#DejaVuSans-51" transform="translate(615.78125 0)"/>
      <use xlink:href="#DejaVuSans-1d" transform="translate(679.15625 0)"/>
      <use xlink:href="#DejaVuSans-3" transform="translate(712.84375 0)"/>
      <use xlink:href="#DejaVuSans-14" transform="translate(744.625 0)"/>
      <use xlink:href="#DejaVuSans-3" transform="translate(808.25 0)"/>
      <use xlink:href="#DejaVuSans-53" transform="translate(840.03125 0)"/>
      <use xlink:href="#DejaVuSans-5b" transform="translate(903.515625 0)"/>
     </g>
    </g>
    <g id="line2d_29">
     <path d="M 54.084927 63.04199 
L 64.084927 63.04199 
L 74.084927 63.04199 
" style="fill: none; stroke: #16a39a; stroke-width: 2.8; stroke-linecap: square"/>
    </g>
    <g id="text_17">
     <!-- Full transition: 1.5 px -->
     <g style="fill: #24364b" transform="translate(82.084927 66.54199) scale(0.1 -0.1)">
      <defs>
       <path id="DejaVuSans-18" d="M 691 4666 
L 3169 4666 
L 3169 4134 
L 1269 4134 
L 1269 2991 
Q 1406 3038 1543 3061 
Q 1681 3084 1819 3084 
Q 2600 3084 3056 2656 
Q 3513 2228 3513 1497 
Q 3513 744 3044 326 
Q 2575 -91 1722 -91 
Q 1428 -91 1123 -41 
Q 819 9 494 109 
L 494 744 
Q 775 591 1075 516 
Q 1375 441 1709 441 
Q 2250 441 2565 725 
Q 2881 1009 2881 1497 
Q 2881 1984 2565 2268 
Q 2250 2553 1709 2553 
Q 1456 2553 1204 2497 
Q 953 2441 691 2322 
L 691 4666 
z
" transform="scale(0.015625)"/>
      </defs>
      <use xlink:href="#DejaVuSans-29"/>
      <use xlink:href="#DejaVuSans-58" transform="translate(52.046875 0)"/>
      <use xlink:href="#DejaVuSans-4f" transform="translate(115.421875 0)"/>
      <use xlink:href="#DejaVuSans-4f" transform="translate(143.203125 0)"/>
      <use xlink:href="#DejaVuSans-3" transform="translate(170.984375 0)"/>
      <use xlink:href="#DejaVuSans-57" transform="translate(202.765625 0)"/>
      <use xlink:href="#DejaVuSans-55" transform="translate(241.96875 0)"/>
      <use xlink:href="#DejaVuSans-44" transform="translate(283.078125 0)"/>
      <use xlink:href="#DejaVuSans-51" transform="translate(344.359375 0)"/>
      <use xlink:href="#DejaVuSans-56" transform="translate(407.734375 0)"/>
      <use xlink:href="#DejaVuSans-4c" transform="translate(459.828125 0)"/>
      <use xlink:href="#DejaVuSans-57" transform="translate(487.609375 0)"/>
      <use xlink:href="#DejaVuSans-4c" transform="translate(526.8125 0)"/>
      <use xlink:href="#DejaVuSans-52" transform="translate(554.59375 0)"/>
      <use xlink:href="#DejaVuSans-51" transform="translate(615.78125 0)"/>
      <use xlink:href="#DejaVuSans-1d" transform="translate(679.15625 0)"/>
      <use xlink:href="#DejaVuSans-3" transform="translate(712.84375 0)"/>
      <use xlink:href="#DejaVuSans-14" transform="translate(744.625 0)"/>
      <use xlink:href="#DejaVuSans-11" transform="translate(808.25 0)"/>
      <use xlink:href="#DejaVuSans-18" transform="translate(840.03125 0)"/>
      <use xlink:href="#DejaVuSans-3" transform="translate(903.65625 0)"/>
      <use xlink:href="#DejaVuSans-53" transform="translate(935.4375 0)"/>
      <use xlink:href="#DejaVuSans-5b" transform="translate(998.921875 0)"/>
     </g>
    </g>
    <g id="line2d_30">
     <path d="M 54.084927 78.042771 
L 64.084927 78.042771 
L 74.084927 78.042771 
" style="fill: none; stroke: #dd816c; stroke-width: 2.8; stroke-linecap: square"/>
    </g>
    <g id="text_18">
     <!-- Full transition: 3 px -->
     <g style="fill: #24364b" transform="translate(82.084927 81.542771) scale(0.1 -0.1)">
      <defs>
       <path id="DejaVuSans-16" d="M 2597 2516 
Q 3050 2419 3304 2112 
Q 3559 1806 3559 1356 
Q 3559 666 3084 287 
Q 2609 -91 1734 -91 
Q 1441 -91 1130 -33 
Q 819 25 488 141 
L 488 750 
Q 750 597 1062 519 
Q 1375 441 1716 441 
Q 2309 441 2620 675 
Q 2931 909 2931 1356 
Q 2931 1769 2642 2001 
Q 2353 2234 1838 2234 
L 1294 2234 
L 1294 2753 
L 1863 2753 
Q 2328 2753 2575 2939 
Q 2822 3125 2822 3475 
Q 2822 3834 2567 4026 
Q 2313 4219 1838 4219 
Q 1578 4219 1281 4162 
Q 984 4106 628 3988 
L 628 4550 
Q 988 4650 1302 4700 
Q 1616 4750 1894 4750 
Q 2613 4750 3031 4423 
Q 3450 4097 3450 3541 
Q 3450 3153 3228 2886 
Q 3006 2619 2597 2516 
z
" transform="scale(0.015625)"/>
      </defs>
      <use xlink:href="#DejaVuSans-29"/>
      <use xlink:href="#DejaVuSans-58" transform="translate(52.046875 0)"/>
      <use xlink:href="#DejaVuSans-4f" transform="translate(115.421875 0)"/>
      <use xlink:href="#DejaVuSans-4f" transform="translate(143.203125 0)"/>
      <use xlink:href="#DejaVuSans-3" transform="translate(170.984375 0)"/>
      <use xlink:href="#DejaVuSans-57" transform="translate(202.765625 0)"/>
      <use xlink:href="#DejaVuSans-55" transform="translate(241.96875 0)"/>
      <use xlink:href="#DejaVuSans-44" transform="translate(283.078125 0)"/>
      <use xlink:href="#DejaVuSans-51" transform="translate(344.359375 0)"/>
      <use xlink:href="#DejaVuSans-56" transform="translate(407.734375 0)"/>
      <use xlink:href="#DejaVuSans-4c" transform="translate(459.828125 0)"/>
      <use xlink:href="#DejaVuSans-57" transform="translate(487.609375 0)"/>
      <use xlink:href="#DejaVuSans-4c" transform="translate(526.8125 0)"/>
      <use xlink:href="#DejaVuSans-52" transform="translate(554.59375 0)"/>
      <use xlink:href="#DejaVuSans-51" transform="translate(615.78125 0)"/>
      <use xlink:href="#DejaVuSans-1d" transform="translate(679.15625 0)"/>
      <use xlink:href="#DejaVuSans-3" transform="translate(712.84375 0)"/>
      <use xlink:href="#DejaVuSans-16" transform="translate(744.625 0)"/>
      <use xlink:href="#DejaVuSans-3" transform="translate(808.25 0)"/>
      <use xlink:href="#DejaVuSans-53" transform="translate(840.03125 0)"/>
      <use xlink:href="#DejaVuSans-5b" transform="translate(903.515625 0)"/>
     </g>
    </g>
   </g>
  </g>
 </g>
 <defs>
  <clipPath id="pafe2e53382">
   <rect x="45.084927" y="19.94199" width="707.914832" height="273.256833"/>
  </clipPath>
 </defs>
</svg>
